<svg xmlns="http://www.w3.org/2000/svg" viewBox="0 0 29.778 33.994"><defs><style>.a{fill:#fff;}</style></defs><g transform="translate(-2.004 0.001)"><path class="a" d="M5.319,18.461A7.833,7.833,0,0,1,6.526,12.6,5.764,5.764,0,0,1,11.228,10h.864v3a1.011,1.011,0,0,0,.536.92.742.742,0,0,0,.933-.22l5.184-6a1.074,1.074,0,0,0,0-1.4L13.561.3a.742.742,0,0,0-.933-.22,1.011,1.011,0,0,0-.536.92V4h-.864A10.66,10.66,0,0,0,2.786,8.445,14.44,14.44,0,0,0,.1,18.721a13.213,13.213,0,0,0,3.551,7.744A.782.782,0,0,0,4.835,26.4l2.4-2.78A1.089,1.089,0,0,0,7.218,22.2a7,7,0,0,1-1.9-3.734Z" transform="translate(2 0)"/><path class="a" d="M20.352,2.856a.864.864,0,0,0-1.18.052l-2.4,2.4a.846.846,0,0,0,.019,1.231,5.8,5.8,0,0,1,1.9,3.228,6.035,6.035,0,0,1-5.914,7.305h-.864V14.482a.864.864,0,0,0-.536-.794.819.819,0,0,0-.933.19L5.259,19.059a.834.834,0,0,0,0,1.209l5.184,5.181a.819.819,0,0,0,.933.19.864.864,0,0,0,.536-.794V22.254h.864A11.24,11.24,0,0,0,23.9,9.543a10.8,10.8,0,0,0-3.551-6.687Z" transform="matrix(0.998, -0.07, 0.07, 0.998, 6.047, 8.695)"/></g></svg>