<svg xmlns="http://www.w3.org/2000/svg" width="16.3" height="13.3" viewBox="-297 390.9 16.3 13.3"><path d="M-280.8 398l-1.6-1.7c-.2-.2-.6-.2-.8 0l-1.6 1.7c-.2.2-.2.6 0 .8h1.3c-.5 1.8-1.9 3.3-3.8 3.8-2.2.6-4.5-.3-5.8-2.1l-1.1.8c1.3 1.8 3.4 2.9 5.6 2.9.6 0 1.2-.1 1.7-.2 2.5-.7 4.4-2.7 4.9-5.1h1.3c.1-.3.1-.7-.1-.9zm-11.5-.9c.2-.2.2-.6 0-.8h-1.5c.5-1.8 1.9-3.3 3.8-3.8 2.2-.6 4.5.3 5.8 2.1l1.1-.8c-1.6-2.3-4.5-3.4-7.3-2.7-2.5.7-4.3 2.6-4.9 5.1h-1.5c-.2.2-.2.6 0 .8l1.7 1.7c.2.2.6.2.8 0l2-1.6z" fill="#fff"/></svg>