<?xml version="1.0" encoding="utf-8"?>
<!-- Generator: Adobe Illustrator 19.0.0, SVG Export Plug-In . SVG Version: 6.00 Build 0)  -->
<svg version="1.1" id="Layer_1" xmlns="http://www.w3.org/2000/svg" xmlns:xlink="http://www.w3.org/1999/xlink" x="0px" y="0px"
	 width="16.3px" height="13.3px" viewBox="-297 390.9 16.3 13.3" style="enable-background:new -297 390.9 16.3 13.3;"
	 xml:space="preserve">
<style type="text/css">
	.st0{fill:#FFFFFF;}
</style>
<title>802</title>
<g>
	<g transform="translate(1.000000, 2.000000)">
		<path class="st0" d="M-281.8,396l-1.6-1.7c-0.2-0.2-0.6-0.2-0.8,0l-1.6,1.7c-0.2,0.2-0.2,0.6,0,0.8h1.3c-0.5,1.8-1.9,3.3-3.8,3.8
			c-2.2,0.6-4.5-0.3-5.8-2.1l-1.1,0.8c1.3,1.8,3.4,2.9,5.6,2.9c0.6,0,1.2-0.1,1.7-0.2c2.5-0.7,4.4-2.7,4.9-5.1h1.3
			C-281.6,396.6-281.6,396.2-281.8,396L-281.8,396z"/>
		<path class="st0" d="M-293.3,395.1c0.2-0.2,0.2-0.6,0-0.8h-1.5c0.5-1.8,1.9-3.3,3.8-3.8c2.2-0.6,4.5,0.3,5.8,2.1l1.1-0.8
			c-1.6-2.3-4.5-3.4-7.3-2.7c-2.5,0.7-4.3,2.6-4.9,5.1h-1.5c-0.2,0.2-0.2,0.6,0,0.8l1.7,1.7c0.2,0.2,0.6,0.2,0.8,0L-293.3,395.1
			L-293.3,395.1z"/>
	</g>
</g>
</svg>
